# xmcd CD database file
#
# Track frame offsets:
#	150
#	21760
#	38073
#	60085
#	83100
#	106435
#	123385
#	142510
#	164700
#	184885
#	219525
#	235510
#	257325
#	287850
#	309910
#
# Disc length: 4365 seconds
#
# Revision: 6
# Processed by: cddbd v1.5.2PL0 Copyright (c) Steve Scherf et al.
# Submitted via: CDex 1.51
#
DISCID=bf110b0f
DTITLE=Los Jaivas - Obras Cumbres CD2
DYEAR=2002
DGENRE=Chileno Rock
TTITLE0=Sube A Nacer Conmigo Hermano
TTITLE1=Aconcagua
TTITLE2=Mambo De Machaguay
TTITLE3=Violeta Ausente
TTITLE4=Run-Run Se Fue Pa'l Norte
TTITLE5=Si Tú No Estás
TTITLE6=Pájaro Errante
TTITLE7=Hijos De La Tierra
TTITLE8=En El Tren A Paysandú
TTITLE9=Litoraleña
TTITLE10=Mamalluca
TTITLE11=El Tambo
TTITLE12=Arrebol
TTITLE13=Todos Americanos
TTITLE14=Un Mar De Gente
EXTD=2002 YEAR: 2002
EXTT0=
EXTT1=
EXTT2=
EXTT3=
EXTT4=
EXTT5=
EXTT6=
EXTT7=
EXTT8=
EXTT9=
EXTT10=
EXTT11=
EXTT12=
EXTT13=
EXTT14=
PLAYORDER=
